<svg width="107" height="24" viewBox="0 0 107 24" fill="none" xmlns="http://www.w3.org/2000/svg">
<path d="M0.000213623 23.6163V0.767442H6.99436C12.0515 0.767442 14.5801 2.74419 14.5801 6.69767C14.5801 7.97674 14.2553 9.0814 13.6057 10.0116C12.9562 10.9419 12.0747 11.5233 10.9612 11.7558C12.2603 11.9419 13.2694 12.5116 13.9885 13.4651C14.7308 14.3953 15.1136 15.6163 15.1368 17.1279C15.1368 21.4535 12.3183 23.6163 6.68119 23.6163H0.000213623ZM7.20314 20.4767C8.7342 20.4767 9.8245 20.1395 10.474 19.4651C11.1236 18.7907 11.4483 17.8953 11.4483 16.7791C11.4483 15.6395 11.0888 14.814 10.3696 14.3023C9.67371 13.7907 8.56021 13.5349 7.02916 13.5349H3.61908V20.4767H7.20314ZM11.0308 6.97674C11.0308 4.93023 9.7665 3.90698 7.23794 3.90698H3.61908V10.3953H6.95956C9.67371 10.3953 11.0308 9.25581 11.0308 6.97674Z" fill="#101010"/>
<path d="M17.5378 15.3488C17.5378 12.5349 18.1641 10.407 19.4168 8.96512C20.6695 7.5 22.4093 6.76744 24.6363 6.76744C26.8633 6.76744 28.5799 7.43023 29.7862 8.75581C31.0157 10.0581 31.6537 11.9767 31.7001 14.5116L31.5609 17.093H21.4002C21.609 19.6047 22.8617 20.8605 25.1583 20.8605C26.7589 20.8605 28.4524 20.5698 30.2386 19.9884L30.9693 23.0233C30.227 23.2791 29.2643 23.5 28.0812 23.686C26.8981 23.8953 25.9238 24 25.1583 24C20.0779 24 17.5378 21.1163 17.5378 15.3488ZM24.7755 10.0116C23.6852 10.0116 22.8617 10.3372 22.3049 10.9884C21.7714 11.6163 21.4698 12.6744 21.4002 14.1628H27.8376C27.8376 11.3953 26.8169 10.0116 24.7755 10.0116Z" fill="#101010"/>
<path d="M34.0314 22.8488L34.797 19.6744C37.0008 20.3721 38.7522 20.7209 40.0513 20.7209C41.3504 20.7209 42.2319 20.593 42.6958 20.3372C43.1598 20.1046 43.3918 19.686 43.3918 19.0814C43.3918 18.4767 43.183 18.0465 42.7654 17.7907C42.3479 17.5349 41.5591 17.2674 40.3992 16.9884C38.1027 16.4302 36.502 15.814 35.5973 15.1395C34.6926 14.4419 34.2402 13.314 34.2402 11.7558C34.2402 8.43023 36.3744 6.76744 40.6428 6.76744C42.4754 6.76744 44.598 7.06977 47.0106 7.67442L46.3495 10.9884C44.0529 10.3372 42.2783 10.0116 41.0256 10.0116C39.7729 10.0116 38.9262 10.1279 38.4854 10.3605C38.0679 10.5698 37.8591 10.9419 37.8591 11.4767C37.8591 12.0116 38.0679 12.407 38.4854 12.6628C38.9262 12.8953 40.0397 13.2558 41.8259 13.7442C43.6121 14.2326 44.9228 14.8023 45.7579 15.4535C46.5931 16.0814 47.0106 17.1628 47.0106 18.6977C47.0106 22.2093 44.8532 23.9651 40.5384 23.9651C38.5202 23.9651 36.3512 23.593 34.0314 22.8488Z" fill="#101010"/>
<path d="M53.274 7.04651L53.3436 8.05814C55.2227 7.19767 56.6957 6.76744 57.7628 6.76744C59.6418 6.76744 61.0221 7.32558 61.9036 8.44186C62.8083 9.53488 63.2607 11.2558 63.2607 13.6047V23.6163H59.6766V13.7093C59.6766 12.593 59.4795 11.7209 59.0851 11.093C58.6907 10.4651 58.076 10.1512 57.2409 10.1512C56.4057 10.1512 55.1183 10.5581 53.3784 11.3721V23.6163H49.7944V7.04651H53.274Z" fill="#101010"/>
<path d="M65.9748 23.6163V20.407H71.1596V10.2558H66.2532V7.04651H74.7436V20.407H79.65V23.6163H65.9748ZM72.7602 4.63953C72.0643 4.63953 71.5075 4.43023 71.09 4.01163C70.6956 3.56977 70.4984 3 70.4984 2.30233C70.4984 1.60465 70.7072 1.04651 71.1248 0.627907C71.5423 0.209302 72.0991 0 72.795 0C73.5141 0 74.0593 0.209302 74.4305 0.627907C74.8248 1.02326 75.022 1.5814 75.022 2.30233C75.022 3.02326 74.8248 3.59302 74.4305 4.01163C74.0361 4.43023 73.4793 4.63953 72.7602 4.63953Z" fill="#101010"/>
<path d="M82.5381 23.6163V0.418606H86.1222V13.7093L88.4188 13.4651C89.7178 11.7907 90.8545 9.97674 91.8288 8.02326L92.316 7.04651H96.2132C94.7518 10.1395 93.1279 12.7209 91.3417 14.7907C92.8263 16.907 94.3226 19.407 95.8305 22.2907L96.5264 23.6163H92.4552C91.3185 21.1512 90.0194 18.7907 88.5579 16.5349L86.1222 16.7791V23.6163H82.5381Z" fill="#101010"/>
<path d="M101.955 23.6163V18.5581H107V23.6163H101.955Z" fill="#101010"/>
</svg>
